<mxfile host="app.diagrams.net" agent="Mozilla/5.0 (Windows NT 10.0; Win64; x64) AppleWebKit/537.36 (KHTML, like Gecko) Chrome/129.0.0.0 Safari/537.36" version="24.7.17">
  <diagram name="Page-1" id="QdNBwId06lDcDanAsgRR">
    <mxGraphModel dx="3874" dy="2346" grid="1" gridSize="10" guides="1" tooltips="1" connect="1" arrows="1" fold="1" page="0" pageScale="1" pageWidth="850" pageHeight="1100" background="none" math="0" shadow="0">
      <root>
        <mxCell id="0" />
        <mxCell id="1" parent="0" />
        <mxCell id="A2kA5QKD5tvrN_G3LeSl-1" value="&lt;font style=&quot;font-size: 24px;&quot;&gt;8&lt;/font&gt;" style="rounded=1;whiteSpace=wrap;html=1;fillColor=#dae8fc;strokeColor=#6c8ebf;" parent="1" vertex="1">
          <mxGeometry x="-440" y="-15" width="120" height="60" as="geometry" />
        </mxCell>
        <mxCell id="A2kA5QKD5tvrN_G3LeSl-4" value="&lt;font style=&quot;font-size: 24px;&quot;&gt;10&lt;/font&gt;" style="rounded=1;whiteSpace=wrap;html=1;fillColor=#dae8fc;strokeColor=#6c8ebf;" parent="1" vertex="1">
          <mxGeometry x="-295" y="-15" width="120" height="60" as="geometry" />
        </mxCell>
        <mxCell id="A2kA5QKD5tvrN_G3LeSl-5" value="&lt;font style=&quot;font-size: 24px;&quot;&gt;12&lt;/font&gt;" style="rounded=1;whiteSpace=wrap;html=1;fillColor=#dae8fc;strokeColor=#6c8ebf;" parent="1" vertex="1">
          <mxGeometry x="-145" y="-15" width="120" height="60" as="geometry" />
        </mxCell>
        <mxCell id="A2kA5QKD5tvrN_G3LeSl-7" value="&lt;font style=&quot;font-size: 24px;&quot;&gt;9&lt;/font&gt;" style="rounded=1;whiteSpace=wrap;html=1;fillColor=#d5e8d4;strokeColor=#82b366;" parent="1" vertex="1">
          <mxGeometry x="-440" y="110" width="120" height="60" as="geometry" />
        </mxCell>
        <mxCell id="A2kA5QKD5tvrN_G3LeSl-8" value="&lt;font style=&quot;font-size: 24px;&quot;&gt;11&lt;/font&gt;" style="rounded=1;whiteSpace=wrap;html=1;fillColor=#d5e8d4;strokeColor=#82b366;" parent="1" vertex="1">
          <mxGeometry x="-295" y="110" width="120" height="60" as="geometry" />
        </mxCell>
        <mxCell id="A2kA5QKD5tvrN_G3LeSl-9" value="&lt;font style=&quot;font-size: 24px;&quot;&gt;8&lt;/font&gt;" style="rounded=1;whiteSpace=wrap;html=1;fillColor=#ffe6cc;strokeColor=#d79b00;" parent="1" vertex="1">
          <mxGeometry x="-442.5" y="250" width="120" height="60" as="geometry" />
        </mxCell>
        <mxCell id="A2kA5QKD5tvrN_G3LeSl-10" value="&lt;font style=&quot;font-size: 24px;&quot;&gt;9&lt;/font&gt;" style="rounded=1;whiteSpace=wrap;html=1;fillColor=#ffe6cc;strokeColor=#d79b00;" parent="1" vertex="1">
          <mxGeometry x="-295" y="250" width="120" height="60" as="geometry" />
        </mxCell>
        <mxCell id="A2kA5QKD5tvrN_G3LeSl-11" value="&lt;font style=&quot;font-size: 24px;&quot;&gt;10&lt;/font&gt;" style="rounded=1;whiteSpace=wrap;html=1;fillColor=#ffe6cc;strokeColor=#d79b00;" parent="1" vertex="1">
          <mxGeometry x="-147.5" y="250" width="120" height="60" as="geometry" />
        </mxCell>
        <mxCell id="A2kA5QKD5tvrN_G3LeSl-12" value="&lt;font style=&quot;font-size: 24px;&quot;&gt;14&lt;/font&gt;" style="rounded=1;whiteSpace=wrap;html=1;fillColor=#f8cecc;strokeColor=#b85450;" parent="1" vertex="1">
          <mxGeometry x="-440" y="400" width="120" height="60" as="geometry" />
        </mxCell>
        <mxCell id="A2kA5QKD5tvrN_G3LeSl-13" value="&lt;font style=&quot;font-size: 24px;&quot;&gt;15&lt;/font&gt;" style="rounded=1;whiteSpace=wrap;html=1;fillColor=#f8cecc;strokeColor=#b85450;" parent="1" vertex="1">
          <mxGeometry x="-295" y="400" width="120" height="60" as="geometry" />
        </mxCell>
        <mxCell id="A2kA5QKD5tvrN_G3LeSl-14" value="&lt;font style=&quot;font-size: 24px;&quot;&gt;16&lt;/font&gt;" style="rounded=1;whiteSpace=wrap;html=1;fillColor=#f8cecc;strokeColor=#b85450;" parent="1" vertex="1">
          <mxGeometry x="-147.5" y="400" width="120" height="60" as="geometry" />
        </mxCell>
        <mxCell id="A2kA5QKD5tvrN_G3LeSl-15" value="&lt;font style=&quot;font-size: 24px;&quot;&gt;17&lt;/font&gt;" style="rounded=1;whiteSpace=wrap;html=1;fillColor=#e1d5e7;strokeColor=#9673a6;" parent="1" vertex="1">
          <mxGeometry x="-440" y="550" width="120" height="60" as="geometry" />
        </mxCell>
        <mxCell id="A2kA5QKD5tvrN_G3LeSl-16" value="&lt;font style=&quot;font-size: 24px;&quot;&gt;18&lt;/font&gt;" style="rounded=1;whiteSpace=wrap;html=1;fillColor=#e1d5e7;strokeColor=#9673a6;" parent="1" vertex="1">
          <mxGeometry x="-295" y="550" width="120" height="60" as="geometry" />
        </mxCell>
        <mxCell id="A2kA5QKD5tvrN_G3LeSl-17" value="&lt;font style=&quot;font-size: 24px;&quot;&gt;19&lt;/font&gt;" style="rounded=1;whiteSpace=wrap;html=1;fillColor=#e1d5e7;strokeColor=#9673a6;" parent="1" vertex="1">
          <mxGeometry x="-147.5" y="550" width="120" height="60" as="geometry" />
        </mxCell>
        <mxCell id="A2kA5QKD5tvrN_G3LeSl-18" value="&lt;font style=&quot;font-size: 36px;&quot;&gt;LUNES&lt;/font&gt;" style="text;html=1;align=center;verticalAlign=middle;whiteSpace=wrap;rounded=0;" parent="1" vertex="1">
          <mxGeometry x="-680" y="-10" width="220" height="50" as="geometry" />
        </mxCell>
        <mxCell id="A2kA5QKD5tvrN_G3LeSl-19" value="&lt;font style=&quot;font-size: 36px;&quot;&gt;MARTES&lt;/font&gt;" style="text;html=1;align=center;verticalAlign=middle;whiteSpace=wrap;rounded=0;" parent="1" vertex="1">
          <mxGeometry x="-680" y="115" width="220" height="50" as="geometry" />
        </mxCell>
        <mxCell id="A2kA5QKD5tvrN_G3LeSl-20" value="&lt;font style=&quot;font-size: 36px;&quot;&gt;JUEVES&lt;/font&gt;" style="text;html=1;align=center;verticalAlign=middle;whiteSpace=wrap;rounded=0;" parent="1" vertex="1">
          <mxGeometry x="-685" y="410" width="220" height="50" as="geometry" />
        </mxCell>
        <mxCell id="A2kA5QKD5tvrN_G3LeSl-21" value="&lt;span style=&quot;font-size: 36px;&quot;&gt;MIERCOLES&lt;/span&gt;" style="text;html=1;align=center;verticalAlign=middle;whiteSpace=wrap;rounded=0;" parent="1" vertex="1">
          <mxGeometry x="-720" y="260" width="260" height="50" as="geometry" />
        </mxCell>
        <mxCell id="A2kA5QKD5tvrN_G3LeSl-22" value="&lt;font style=&quot;font-size: 36px;&quot;&gt;VIERNES&lt;/font&gt;" style="text;html=1;align=center;verticalAlign=middle;whiteSpace=wrap;rounded=0;" parent="1" vertex="1">
          <mxGeometry x="-690" y="550" width="220" height="50" as="geometry" />
        </mxCell>
        <mxCell id="A2kA5QKD5tvrN_G3LeSl-23" value="&lt;font style=&quot;font-size: 24px;&quot;&gt;15&lt;/font&gt;" style="rounded=1;whiteSpace=wrap;html=1;" parent="1" vertex="1">
          <mxGeometry x="270" y="1240" width="120" height="60" as="geometry" />
        </mxCell>
        <mxCell id="A2kA5QKD5tvrN_G3LeSl-24" value="&lt;font style=&quot;font-size: 24px;&quot;&gt;16&lt;/font&gt;" style="rounded=1;whiteSpace=wrap;html=1;" parent="1" vertex="1">
          <mxGeometry x="415" y="1240" width="120" height="60" as="geometry" />
        </mxCell>
        <mxCell id="A2kA5QKD5tvrN_G3LeSl-25" value="&lt;font style=&quot;font-size: 24px;&quot;&gt;19&lt;/font&gt;" style="rounded=1;whiteSpace=wrap;html=1;" parent="1" vertex="1">
          <mxGeometry x="562.5" y="1240" width="120" height="60" as="geometry" />
        </mxCell>
        <mxCell id="A2kA5QKD5tvrN_G3LeSl-26" value="&lt;font style=&quot;font-size: 24px;&quot;&gt;20&lt;/font&gt;" style="rounded=1;whiteSpace=wrap;html=1;" parent="1" vertex="1">
          <mxGeometry x="-580" y="1220" width="120" height="60" as="geometry" />
        </mxCell>
        <mxCell id="A2kA5QKD5tvrN_G3LeSl-27" value="&lt;font style=&quot;font-size: 24px;&quot;&gt;25&lt;/font&gt;" style="rounded=1;whiteSpace=wrap;html=1;" parent="1" vertex="1">
          <mxGeometry x="-435" y="1220" width="120" height="60" as="geometry" />
        </mxCell>
        <mxCell id="A2kA5QKD5tvrN_G3LeSl-28" value="&lt;font style=&quot;font-size: 24px;&quot;&gt;28&lt;/font&gt;" style="rounded=1;whiteSpace=wrap;html=1;" parent="1" vertex="1">
          <mxGeometry x="-287.5" y="1220" width="120" height="60" as="geometry" />
        </mxCell>
        <mxCell id="A2kA5QKD5tvrN_G3LeSl-31" value="" style="rounded=0;whiteSpace=wrap;html=1;horizontal=1;verticalAlign=middle;fontColor=default;glass=0;shadow=0;" parent="1" vertex="1">
          <mxGeometry x="-670" y="930" width="230" height="70" as="geometry" />
        </mxCell>
        <mxCell id="A2kA5QKD5tvrN_G3LeSl-42" value="" style="line;strokeWidth=4;direction=south;html=1;perimeter=backbonePerimeter;points=[];outlineConnect=0;" parent="1" vertex="1">
          <mxGeometry x="-600" y="930" width="10" height="70" as="geometry" />
        </mxCell>
        <mxCell id="A2kA5QKD5tvrN_G3LeSl-43" value="" style="line;strokeWidth=4;direction=south;html=1;perimeter=backbonePerimeter;points=[];outlineConnect=0;" parent="1" vertex="1">
          <mxGeometry x="-525" y="930" width="10" height="70" as="geometry" />
        </mxCell>
        <mxCell id="A2kA5QKD5tvrN_G3LeSl-45" value="&lt;font style=&quot;font-size: 15px;&quot;&gt;Cola&lt;/font&gt;" style="text;html=1;align=center;verticalAlign=middle;whiteSpace=wrap;rounded=0;" parent="1" vertex="1">
          <mxGeometry x="-600" y="880" width="97.5" height="30" as="geometry" />
        </mxCell>
        <mxCell id="A2kA5QKD5tvrN_G3LeSl-46" value="&lt;font style=&quot;font-size: 15px;&quot;&gt;Cabeza&lt;/font&gt;" style="text;html=1;align=center;verticalAlign=middle;whiteSpace=wrap;rounded=0;" parent="1" vertex="1">
          <mxGeometry x="-687.5" y="880" width="97.5" height="30" as="geometry" />
        </mxCell>
        <mxCell id="A2kA5QKD5tvrN_G3LeSl-48" value="&lt;font style=&quot;font-size: 15px;&quot;&gt;Longitud&lt;/font&gt;" style="text;html=1;align=center;verticalAlign=middle;whiteSpace=wrap;rounded=0;" parent="1" vertex="1">
          <mxGeometry x="-525" y="880" width="97.5" height="30" as="geometry" />
        </mxCell>
        <mxCell id="A2kA5QKD5tvrN_G3LeSl-49" value="&lt;font style=&quot;font-size: 26px;&quot;&gt;3&lt;/font&gt;" style="text;html=1;align=center;verticalAlign=middle;whiteSpace=wrap;rounded=0;" parent="1" vertex="1">
          <mxGeometry x="-550" y="940" width="147.5" height="60" as="geometry" />
        </mxCell>
        <mxCell id="A2kA5QKD5tvrN_G3LeSl-50" value="&lt;font style=&quot;font-size: 24px;&quot;&gt;NULLPTR&lt;/font&gt;" style="rounded=1;whiteSpace=wrap;html=1;" parent="1" vertex="1">
          <mxGeometry x="-220" y="1460" width="145" height="60" as="geometry" />
        </mxCell>
        <mxCell id="A2kA5QKD5tvrN_G3LeSl-51" value="&lt;font style=&quot;font-size: 24px;&quot;&gt;NULLPTR&lt;/font&gt;" style="rounded=1;whiteSpace=wrap;html=1;" parent="1" vertex="1">
          <mxGeometry x="670" y="1480" width="145" height="60" as="geometry" />
        </mxCell>
        <mxCell id="A2kA5QKD5tvrN_G3LeSl-53" value="" style="endArrow=classic;html=1;rounded=0;" parent="1" edge="1">
          <mxGeometry width="50" height="50" relative="1" as="geometry">
            <mxPoint x="-250" y="1290" as="sourcePoint" />
            <mxPoint x="-160" y="1440" as="targetPoint" />
          </mxGeometry>
        </mxCell>
        <mxCell id="A2kA5QKD5tvrN_G3LeSl-56" value="" style="endArrow=classic;html=1;rounded=0;" parent="1" edge="1">
          <mxGeometry width="50" height="50" relative="1" as="geometry">
            <mxPoint x="-630" y="1010" as="sourcePoint" />
            <mxPoint x="-530" y="1200" as="targetPoint" />
          </mxGeometry>
        </mxCell>
        <mxCell id="A2kA5QKD5tvrN_G3LeSl-58" value="" style="endArrow=classic;html=1;rounded=0;" parent="1" edge="1">
          <mxGeometry width="50" height="50" relative="1" as="geometry">
            <mxPoint x="-560" y="1010" as="sourcePoint" />
            <mxPoint x="-230" y="1210" as="targetPoint" />
          </mxGeometry>
        </mxCell>
        <mxCell id="A2kA5QKD5tvrN_G3LeSl-59" value="" style="rounded=0;whiteSpace=wrap;html=1;horizontal=1;verticalAlign=middle;fontColor=default;glass=0;shadow=0;" parent="1" vertex="1">
          <mxGeometry x="127.5" y="910" width="230" height="70" as="geometry" />
        </mxCell>
        <mxCell id="A2kA5QKD5tvrN_G3LeSl-60" value="" style="line;strokeWidth=4;direction=south;html=1;perimeter=backbonePerimeter;points=[];outlineConnect=0;" parent="1" vertex="1">
          <mxGeometry x="197.5" y="910" width="10" height="70" as="geometry" />
        </mxCell>
        <mxCell id="A2kA5QKD5tvrN_G3LeSl-61" value="" style="line;strokeWidth=4;direction=south;html=1;perimeter=backbonePerimeter;points=[];outlineConnect=0;" parent="1" vertex="1">
          <mxGeometry x="272.5" y="910" width="10" height="70" as="geometry" />
        </mxCell>
        <mxCell id="A2kA5QKD5tvrN_G3LeSl-62" value="&lt;font style=&quot;font-size: 15px;&quot;&gt;Cola&lt;/font&gt;" style="text;html=1;align=center;verticalAlign=middle;whiteSpace=wrap;rounded=0;" parent="1" vertex="1">
          <mxGeometry x="197.5" y="860" width="97.5" height="30" as="geometry" />
        </mxCell>
        <mxCell id="A2kA5QKD5tvrN_G3LeSl-63" value="&lt;font style=&quot;font-size: 15px;&quot;&gt;Cabeza&lt;/font&gt;" style="text;html=1;align=center;verticalAlign=middle;whiteSpace=wrap;rounded=0;" parent="1" vertex="1">
          <mxGeometry x="110" y="860" width="97.5" height="30" as="geometry" />
        </mxCell>
        <mxCell id="A2kA5QKD5tvrN_G3LeSl-64" value="&lt;font style=&quot;font-size: 15px;&quot;&gt;Longitud&lt;/font&gt;" style="text;html=1;align=center;verticalAlign=middle;whiteSpace=wrap;rounded=0;" parent="1" vertex="1">
          <mxGeometry x="272.5" y="860" width="97.5" height="30" as="geometry" />
        </mxCell>
        <mxCell id="A2kA5QKD5tvrN_G3LeSl-65" value="&lt;font style=&quot;font-size: 26px;&quot;&gt;3&lt;/font&gt;" style="text;html=1;align=center;verticalAlign=middle;whiteSpace=wrap;rounded=0;" parent="1" vertex="1">
          <mxGeometry x="247.5" y="920" width="147.5" height="60" as="geometry" />
        </mxCell>
        <mxCell id="A2kA5QKD5tvrN_G3LeSl-66" value="" style="endArrow=classic;html=1;rounded=0;exitX=0.183;exitY=0.996;exitDx=0;exitDy=0;exitPerimeter=0;" parent="1" source="A2kA5QKD5tvrN_G3LeSl-59" edge="1">
          <mxGeometry width="50" height="50" relative="1" as="geometry">
            <mxPoint x="197.5" y="1000" as="sourcePoint" />
            <mxPoint x="320" y="1210" as="targetPoint" />
          </mxGeometry>
        </mxCell>
        <mxCell id="A2kA5QKD5tvrN_G3LeSl-67" value="" style="endArrow=classic;html=1;rounded=0;exitX=0.5;exitY=1;exitDx=0;exitDy=0;" parent="1" source="A2kA5QKD5tvrN_G3LeSl-59" edge="1">
          <mxGeometry width="50" height="50" relative="1" as="geometry">
            <mxPoint x="257.5" y="990" as="sourcePoint" />
            <mxPoint x="620" y="1220" as="targetPoint" />
          </mxGeometry>
        </mxCell>
        <mxCell id="A2kA5QKD5tvrN_G3LeSl-70" value="" style="endArrow=classic;html=1;rounded=0;curved=1;" parent="1" edge="1">
          <mxGeometry width="50" height="50" relative="1" as="geometry">
            <mxPoint x="417.5" y="1790" as="sourcePoint" />
            <mxPoint x="-712.5" y="2000" as="targetPoint" />
            <Array as="points">
              <mxPoint x="-212.5" y="2570" />
            </Array>
          </mxGeometry>
        </mxCell>
        <mxCell id="A2kA5QKD5tvrN_G3LeSl-78" value="" style="endArrow=classic;html=1;rounded=0;" parent="1" edge="1">
          <mxGeometry width="50" height="50" relative="1" as="geometry">
            <mxPoint x="630" y="1310" as="sourcePoint" />
            <mxPoint x="-520" y="1310" as="targetPoint" />
            <Array as="points">
              <mxPoint x="70" y="1450" />
            </Array>
          </mxGeometry>
        </mxCell>
        <mxCell id="A2kA5QKD5tvrN_G3LeSl-79" value="&lt;font style=&quot;font-size: 24px;&quot;&gt;13&lt;/font&gt;" style="rounded=1;whiteSpace=wrap;html=1;" parent="1" vertex="1">
          <mxGeometry x="1857.5" y="-30" width="120" height="60" as="geometry" />
        </mxCell>
        <mxCell id="A2kA5QKD5tvrN_G3LeSl-80" value="&lt;font style=&quot;font-size: 24px;&quot;&gt;15&lt;/font&gt;" style="rounded=1;whiteSpace=wrap;html=1;" parent="1" vertex="1">
          <mxGeometry x="2002.5" y="-30" width="120" height="60" as="geometry" />
        </mxCell>
        <mxCell id="A2kA5QKD5tvrN_G3LeSl-81" value="&lt;font style=&quot;font-size: 24px;&quot;&gt;16&lt;/font&gt;" style="rounded=1;whiteSpace=wrap;html=1;" parent="1" vertex="1">
          <mxGeometry x="2150" y="-30" width="120" height="60" as="geometry" />
        </mxCell>
        <mxCell id="A2kA5QKD5tvrN_G3LeSl-82" value="&lt;font style=&quot;font-size: 24px;&quot;&gt;12&lt;/font&gt;" style="rounded=1;whiteSpace=wrap;html=1;" parent="1" vertex="1">
          <mxGeometry x="1007.5" y="-50" width="120" height="60" as="geometry" />
        </mxCell>
        <mxCell id="A2kA5QKD5tvrN_G3LeSl-83" value="&lt;font style=&quot;font-size: 24px;&quot;&gt;14&lt;/font&gt;" style="rounded=1;whiteSpace=wrap;html=1;" parent="1" vertex="1">
          <mxGeometry x="1152.5" y="-50" width="120" height="60" as="geometry" />
        </mxCell>
        <mxCell id="A2kA5QKD5tvrN_G3LeSl-84" value="&lt;font style=&quot;font-size: 24px;&quot;&gt;17&lt;/font&gt;" style="rounded=1;whiteSpace=wrap;html=1;" parent="1" vertex="1">
          <mxGeometry x="1300" y="-50" width="120" height="60" as="geometry" />
        </mxCell>
        <mxCell id="A2kA5QKD5tvrN_G3LeSl-85" value="" style="rounded=0;whiteSpace=wrap;html=1;horizontal=1;verticalAlign=middle;fontColor=default;glass=0;shadow=0;" parent="1" vertex="1">
          <mxGeometry x="917.5" y="-340" width="230" height="70" as="geometry" />
        </mxCell>
        <mxCell id="A2kA5QKD5tvrN_G3LeSl-86" value="" style="line;strokeWidth=4;direction=south;html=1;perimeter=backbonePerimeter;points=[];outlineConnect=0;" parent="1" vertex="1">
          <mxGeometry x="987.5" y="-340" width="10" height="70" as="geometry" />
        </mxCell>
        <mxCell id="A2kA5QKD5tvrN_G3LeSl-87" value="" style="line;strokeWidth=4;direction=south;html=1;perimeter=backbonePerimeter;points=[];outlineConnect=0;" parent="1" vertex="1">
          <mxGeometry x="1062.5" y="-340" width="10" height="70" as="geometry" />
        </mxCell>
        <mxCell id="A2kA5QKD5tvrN_G3LeSl-88" value="&lt;font style=&quot;font-size: 15px;&quot;&gt;Cola&lt;/font&gt;" style="text;html=1;align=center;verticalAlign=middle;whiteSpace=wrap;rounded=0;" parent="1" vertex="1">
          <mxGeometry x="987.5" y="-390" width="97.5" height="30" as="geometry" />
        </mxCell>
        <mxCell id="A2kA5QKD5tvrN_G3LeSl-89" value="&lt;font style=&quot;font-size: 15px;&quot;&gt;Cabeza&lt;/font&gt;" style="text;html=1;align=center;verticalAlign=middle;whiteSpace=wrap;rounded=0;" parent="1" vertex="1">
          <mxGeometry x="900" y="-390" width="97.5" height="30" as="geometry" />
        </mxCell>
        <mxCell id="A2kA5QKD5tvrN_G3LeSl-90" value="&lt;font style=&quot;font-size: 15px;&quot;&gt;Longitud&lt;/font&gt;" style="text;html=1;align=center;verticalAlign=middle;whiteSpace=wrap;rounded=0;" parent="1" vertex="1">
          <mxGeometry x="1062.5" y="-390" width="97.5" height="30" as="geometry" />
        </mxCell>
        <mxCell id="A2kA5QKD5tvrN_G3LeSl-91" value="&lt;font style=&quot;font-size: 26px;&quot;&gt;3&lt;/font&gt;" style="text;html=1;align=center;verticalAlign=middle;whiteSpace=wrap;rounded=0;" parent="1" vertex="1">
          <mxGeometry x="1037.5" y="-330" width="147.5" height="60" as="geometry" />
        </mxCell>
        <mxCell id="A2kA5QKD5tvrN_G3LeSl-92" value="&lt;font style=&quot;font-size: 24px;&quot;&gt;NULLPTR&lt;/font&gt;" style="rounded=1;whiteSpace=wrap;html=1;" parent="1" vertex="1">
          <mxGeometry x="1367.5" y="190" width="145" height="60" as="geometry" />
        </mxCell>
        <mxCell id="A2kA5QKD5tvrN_G3LeSl-93" value="&lt;font style=&quot;font-size: 24px;&quot;&gt;NULLPTR&lt;/font&gt;" style="rounded=1;whiteSpace=wrap;html=1;" parent="1" vertex="1">
          <mxGeometry x="2257.5" y="210" width="145" height="60" as="geometry" />
        </mxCell>
        <mxCell id="A2kA5QKD5tvrN_G3LeSl-94" value="" style="endArrow=classic;html=1;rounded=0;" parent="1" edge="1">
          <mxGeometry width="50" height="50" relative="1" as="geometry">
            <mxPoint x="1337.5" y="20" as="sourcePoint" />
            <mxPoint x="1427.5" y="170" as="targetPoint" />
          </mxGeometry>
        </mxCell>
        <mxCell id="A2kA5QKD5tvrN_G3LeSl-95" value="" style="endArrow=classic;html=1;rounded=0;" parent="1" edge="1">
          <mxGeometry width="50" height="50" relative="1" as="geometry">
            <mxPoint x="957.5" y="-260" as="sourcePoint" />
            <mxPoint x="1057.5" y="-70" as="targetPoint" />
          </mxGeometry>
        </mxCell>
        <mxCell id="A2kA5QKD5tvrN_G3LeSl-96" value="" style="endArrow=classic;html=1;rounded=0;" parent="1" edge="1">
          <mxGeometry width="50" height="50" relative="1" as="geometry">
            <mxPoint x="1027.5" y="-260" as="sourcePoint" />
            <mxPoint x="1357.5" y="-60" as="targetPoint" />
          </mxGeometry>
        </mxCell>
        <mxCell id="A2kA5QKD5tvrN_G3LeSl-97" value="" style="rounded=0;whiteSpace=wrap;html=1;horizontal=1;verticalAlign=middle;fontColor=default;glass=0;shadow=0;" parent="1" vertex="1">
          <mxGeometry x="1715" y="-360" width="230" height="70" as="geometry" />
        </mxCell>
        <mxCell id="A2kA5QKD5tvrN_G3LeSl-98" value="" style="line;strokeWidth=4;direction=south;html=1;perimeter=backbonePerimeter;points=[];outlineConnect=0;" parent="1" vertex="1">
          <mxGeometry x="1785" y="-360" width="10" height="70" as="geometry" />
        </mxCell>
        <mxCell id="A2kA5QKD5tvrN_G3LeSl-99" value="" style="line;strokeWidth=4;direction=south;html=1;perimeter=backbonePerimeter;points=[];outlineConnect=0;" parent="1" vertex="1">
          <mxGeometry x="1860" y="-360" width="10" height="70" as="geometry" />
        </mxCell>
        <mxCell id="A2kA5QKD5tvrN_G3LeSl-100" value="&lt;font style=&quot;font-size: 15px;&quot;&gt;Cola&lt;/font&gt;" style="text;html=1;align=center;verticalAlign=middle;whiteSpace=wrap;rounded=0;" parent="1" vertex="1">
          <mxGeometry x="1785" y="-410" width="97.5" height="30" as="geometry" />
        </mxCell>
        <mxCell id="A2kA5QKD5tvrN_G3LeSl-101" value="&lt;font style=&quot;font-size: 15px;&quot;&gt;Cabeza&lt;/font&gt;" style="text;html=1;align=center;verticalAlign=middle;whiteSpace=wrap;rounded=0;" parent="1" vertex="1">
          <mxGeometry x="1697.5" y="-410" width="97.5" height="30" as="geometry" />
        </mxCell>
        <mxCell id="A2kA5QKD5tvrN_G3LeSl-102" value="&lt;font style=&quot;font-size: 15px;&quot;&gt;Longitud&lt;/font&gt;" style="text;html=1;align=center;verticalAlign=middle;whiteSpace=wrap;rounded=0;" parent="1" vertex="1">
          <mxGeometry x="1860" y="-410" width="97.5" height="30" as="geometry" />
        </mxCell>
        <mxCell id="A2kA5QKD5tvrN_G3LeSl-103" value="&lt;font style=&quot;font-size: 26px;&quot;&gt;3&lt;/font&gt;" style="text;html=1;align=center;verticalAlign=middle;whiteSpace=wrap;rounded=0;" parent="1" vertex="1">
          <mxGeometry x="1835" y="-350" width="147.5" height="60" as="geometry" />
        </mxCell>
        <mxCell id="A2kA5QKD5tvrN_G3LeSl-104" value="" style="endArrow=classic;html=1;rounded=0;exitX=0.183;exitY=0.996;exitDx=0;exitDy=0;exitPerimeter=0;" parent="1" source="A2kA5QKD5tvrN_G3LeSl-97" edge="1">
          <mxGeometry width="50" height="50" relative="1" as="geometry">
            <mxPoint x="1785" y="-270" as="sourcePoint" />
            <mxPoint x="1907.5" y="-60" as="targetPoint" />
          </mxGeometry>
        </mxCell>
        <mxCell id="A2kA5QKD5tvrN_G3LeSl-105" value="" style="endArrow=classic;html=1;rounded=0;exitX=0.5;exitY=1;exitDx=0;exitDy=0;" parent="1" source="A2kA5QKD5tvrN_G3LeSl-97" edge="1">
          <mxGeometry width="50" height="50" relative="1" as="geometry">
            <mxPoint x="1845" y="-280" as="sourcePoint" />
            <mxPoint x="2207.5" y="-50" as="targetPoint" />
          </mxGeometry>
        </mxCell>
        <mxCell id="A2kA5QKD5tvrN_G3LeSl-106" value="" style="endArrow=classic;html=1;rounded=0;" parent="1" edge="1">
          <mxGeometry width="50" height="50" relative="1" as="geometry">
            <mxPoint x="2217.5" y="40" as="sourcePoint" />
            <mxPoint x="2307.5" y="190" as="targetPoint" />
          </mxGeometry>
        </mxCell>
        <mxCell id="A2kA5QKD5tvrN_G3LeSl-107" value="&lt;font style=&quot;font-size: 24px;&quot;&gt;8&lt;/font&gt;" style="rounded=1;whiteSpace=wrap;html=1;fillColor=#dae8fc;strokeColor=#6c8ebf;" parent="1" vertex="1">
          <mxGeometry x="-1245" y="-980" width="120" height="60" as="geometry" />
        </mxCell>
        <mxCell id="A2kA5QKD5tvrN_G3LeSl-108" value="&lt;font style=&quot;font-size: 24px;&quot;&gt;10&lt;/font&gt;" style="rounded=1;whiteSpace=wrap;html=1;fillColor=#dae8fc;strokeColor=#6c8ebf;" parent="1" vertex="1">
          <mxGeometry x="-980" y="-980" width="120" height="60" as="geometry" />
        </mxCell>
        <mxCell id="A2kA5QKD5tvrN_G3LeSl-109" value="&lt;font style=&quot;font-size: 24px;&quot;&gt;12&lt;/font&gt;" style="rounded=1;whiteSpace=wrap;html=1;fillColor=#dae8fc;strokeColor=#6c8ebf;" parent="1" vertex="1">
          <mxGeometry x="-710" y="-980" width="120" height="60" as="geometry" />
        </mxCell>
        <mxCell id="A2kA5QKD5tvrN_G3LeSl-110" value="&lt;font style=&quot;font-size: 24px;&quot;&gt;9&lt;/font&gt;" style="rounded=1;whiteSpace=wrap;html=1;fillColor=#d5e8d4;strokeColor=#82b366;" parent="1" vertex="1">
          <mxGeometry x="-1210" y="-730" width="120" height="60" as="geometry" />
        </mxCell>
        <mxCell id="A2kA5QKD5tvrN_G3LeSl-111" value="&lt;font style=&quot;font-size: 24px;&quot;&gt;11&lt;/font&gt;" style="rounded=1;whiteSpace=wrap;html=1;fillColor=#d5e8d4;strokeColor=#82b366;" parent="1" vertex="1">
          <mxGeometry x="-910" y="-730" width="120" height="60" as="geometry" />
        </mxCell>
        <mxCell id="A2kA5QKD5tvrN_G3LeSl-112" value="&lt;font style=&quot;font-size: 36px;&quot;&gt;LUNES&lt;/font&gt;" style="text;html=1;align=center;verticalAlign=middle;whiteSpace=wrap;rounded=0;" parent="1" vertex="1">
          <mxGeometry x="-1370" y="-1360" width="220" height="50" as="geometry" />
        </mxCell>
        <mxCell id="A2kA5QKD5tvrN_G3LeSl-113" value="&lt;font style=&quot;font-size: 36px;&quot;&gt;MARTES&lt;/font&gt;" style="text;html=1;align=center;verticalAlign=middle;whiteSpace=wrap;rounded=0;" parent="1" vertex="1">
          <mxGeometry x="-1370" y="-1235" width="220" height="50" as="geometry" />
        </mxCell>
        <mxCell id="A2kA5QKD5tvrN_G3LeSl-114" value="&lt;font style=&quot;font-size: 24px;&quot;&gt;8&lt;/font&gt;" style="rounded=1;whiteSpace=wrap;html=1;fillColor=#dae8fc;strokeColor=#6c8ebf;" parent="1" vertex="1">
          <mxGeometry x="-1135" y="-1360" width="120" height="60" as="geometry" />
        </mxCell>
        <mxCell id="A2kA5QKD5tvrN_G3LeSl-115" value="&lt;font style=&quot;font-size: 24px;&quot;&gt;10&lt;/font&gt;" style="rounded=1;whiteSpace=wrap;html=1;fillColor=#dae8fc;strokeColor=#6c8ebf;" parent="1" vertex="1">
          <mxGeometry x="-990" y="-1360" width="120" height="60" as="geometry" />
        </mxCell>
        <mxCell id="A2kA5QKD5tvrN_G3LeSl-116" value="&lt;font style=&quot;font-size: 24px;&quot;&gt;12&lt;/font&gt;" style="rounded=1;whiteSpace=wrap;html=1;fillColor=#dae8fc;strokeColor=#6c8ebf;" parent="1" vertex="1">
          <mxGeometry x="-840" y="-1360" width="120" height="60" as="geometry" />
        </mxCell>
        <mxCell id="A2kA5QKD5tvrN_G3LeSl-117" value="&lt;font style=&quot;font-size: 24px;&quot;&gt;9&lt;/font&gt;" style="rounded=1;whiteSpace=wrap;html=1;fillColor=#d5e8d4;strokeColor=#82b366;" parent="1" vertex="1">
          <mxGeometry x="-1115" y="-1240" width="120" height="60" as="geometry" />
        </mxCell>
        <mxCell id="A2kA5QKD5tvrN_G3LeSl-118" value="&lt;font style=&quot;font-size: 24px;&quot;&gt;11&lt;/font&gt;" style="rounded=1;whiteSpace=wrap;html=1;fillColor=#d5e8d4;strokeColor=#82b366;" parent="1" vertex="1">
          <mxGeometry x="-970" y="-1240" width="120" height="60" as="geometry" />
        </mxCell>
        <mxCell id="A2kA5QKD5tvrN_G3LeSl-121" value="" style="shape=flexArrow;endArrow=classic;html=1;rounded=0;exitX=0.648;exitY=1.094;exitDx=0;exitDy=0;exitPerimeter=0;" parent="1" source="A2kA5QKD5tvrN_G3LeSl-123" edge="1">
          <mxGeometry width="50" height="50" relative="1" as="geometry">
            <mxPoint x="-1540" y="-1100" as="sourcePoint" />
            <mxPoint x="-1260" y="-990" as="targetPoint" />
          </mxGeometry>
        </mxCell>
        <mxCell id="A2kA5QKD5tvrN_G3LeSl-123" value="&lt;font style=&quot;font-size: 36px;&quot;&gt;INI&lt;/font&gt;" style="text;html=1;align=center;verticalAlign=middle;whiteSpace=wrap;rounded=0;" parent="1" vertex="1">
          <mxGeometry x="-1850" y="-1235" width="300" height="50" as="geometry" />
        </mxCell>
        <mxCell id="A2kA5QKD5tvrN_G3LeSl-124" value="&lt;font style=&quot;font-size: 36px;&quot;&gt;FIN&lt;/font&gt;" style="text;html=1;align=center;verticalAlign=middle;whiteSpace=wrap;rounded=0;" parent="1" vertex="1">
          <mxGeometry x="-1920" y="-900" width="220" height="50" as="geometry" />
        </mxCell>
        <mxCell id="A2kA5QKD5tvrN_G3LeSl-122" value="" style="shape=flexArrow;endArrow=classic;html=1;rounded=0;exitX=1;exitY=0.75;exitDx=0;exitDy=0;width=34.285714285714285;endSize=8.742857142857144;" parent="1" edge="1">
          <mxGeometry width="50" height="50" relative="1" as="geometry">
            <mxPoint x="-1730" y="-850" as="sourcePoint" />
            <mxPoint x="-1260" y="-710" as="targetPoint" />
          </mxGeometry>
        </mxCell>
        <mxCell id="A2kA5QKD5tvrN_G3LeSl-131" value="" style="endArrow=classic;html=1;rounded=0;" parent="1" edge="1">
          <mxGeometry width="50" height="50" relative="1" as="geometry">
            <mxPoint x="-1100" y="-950" as="sourcePoint" />
            <mxPoint x="-1170" y="-800" as="targetPoint" />
          </mxGeometry>
        </mxCell>
        <mxCell id="A2kA5QKD5tvrN_G3LeSl-132" value="" style="endArrow=classic;html=1;rounded=0;" parent="1" edge="1">
          <mxGeometry width="50" height="50" relative="1" as="geometry">
            <mxPoint x="-840" y="-950.71" as="sourcePoint" />
            <mxPoint x="-830" y="-800" as="targetPoint" />
          </mxGeometry>
        </mxCell>
        <mxCell id="A2kA5QKD5tvrN_G3LeSl-133" value="" style="endArrow=classic;html=1;rounded=0;" parent="1" edge="1">
          <mxGeometry width="50" height="50" relative="1" as="geometry">
            <mxPoint x="-1070" y="-700" as="sourcePoint" />
            <mxPoint x="-940" y="-890" as="targetPoint" />
          </mxGeometry>
        </mxCell>
        <mxCell id="A2kA5QKD5tvrN_G3LeSl-134" value="" style="endArrow=classic;html=1;rounded=0;" parent="1" edge="1">
          <mxGeometry width="50" height="50" relative="1" as="geometry">
            <mxPoint x="-570" y="-960" as="sourcePoint" />
            <mxPoint x="-470" y="-960" as="targetPoint" />
          </mxGeometry>
        </mxCell>
        <mxCell id="A2kA5QKD5tvrN_G3LeSl-135" value="" style="endArrow=classic;html=1;rounded=0;" parent="1" edge="1">
          <mxGeometry width="50" height="50" relative="1" as="geometry">
            <mxPoint x="-760" y="-700.71" as="sourcePoint" />
            <mxPoint x="-650" y="-900" as="targetPoint" />
          </mxGeometry>
        </mxCell>
        <mxCell id="KNKgpz3W6I0e8scHzkvY-1" value="" style="shape=flexArrow;endArrow=classic;html=1;rounded=0;fillColor=#1ba1e2;strokeColor=#006EAF;" parent="1" edge="1">
          <mxGeometry width="50" height="50" relative="1" as="geometry">
            <mxPoint x="-565" y="-1140" as="sourcePoint" />
            <mxPoint x="-660" y="-1020" as="targetPoint" />
          </mxGeometry>
        </mxCell>
        <mxCell id="KNKgpz3W6I0e8scHzkvY-2" value="" style="shape=flexArrow;endArrow=classic;html=1;rounded=0;fillColor=#60a917;strokeColor=#2D7600;" parent="1" edge="1">
          <mxGeometry width="50" height="50" relative="1" as="geometry">
            <mxPoint x="-330" y="-880" as="sourcePoint" />
            <mxPoint x="-530" y="-760" as="targetPoint" />
          </mxGeometry>
        </mxCell>
        <mxCell id="DePVeNN0sgsYNvk4bwFq-3" value="" style="endArrow=classic;html=1;rounded=0;" edge="1" parent="1">
          <mxGeometry width="50" height="50" relative="1" as="geometry">
            <mxPoint x="1347.5" y="30" as="sourcePoint" />
            <mxPoint x="1437.5" y="180" as="targetPoint" />
          </mxGeometry>
        </mxCell>
      </root>
    </mxGraphModel>
  </diagram>
</mxfile>
